Coordinates
nRows=6
nColumns=38

# SIMM Motion File Header:
name Coordinates
datacolumns 38
datarows 6
otherdata 1
range 1.33600000000000010000 1.34100000000000000000

Units are S.I. units (second, meters, Newtons, ...)
Angles are in degrees.

endheader
time	pelvis_tilt	pelvis_list	pelvis_rotation	pelvis_tx	pelvis_ty	pelvis_tz	hip_flexion_r	hip_adduction_r	hip_rotation_r	knee_angle_r	ankle_angle_r	subtalar_angle_r	mtp_angle_r	hip_flexion_l	hip_adduction_l	hip_rotation_l	knee_angle_l	ankle_angle_l	subtalar_angle_l	mtp_angle_l	lumbar_extension	lumbar_bending	lumbar_rotation	arm_flex_r	arm_add_r	arm_rot_r	elbow_flex_r	pro_sup_r	wrist_flex_r	wrist_dev_r	arm_flex_l	arm_add_l	arm_rot_l	elbow_flex_l	pro_sup_l	wrist_flex_l	wrist_dev_l
      1.33600000000000010000	     -2.93486056373956970000	      4.87193392635458890000	      1.97300599057532190000	      0.77400261400775561000	      0.96563278121524199000	     -0.46152102709371412000	     23.46715294899747300000	     -5.87109953180526660000	     -2.28795846514868770000	    -74.21553295306239300000	     -2.59057760727957740000	      0.00000000000007512971	      0.00000000000027641424	      9.68567900667654590000	      5.71694996954479070000	     -2.97247248424090000000	    -33.35760420852993500000	     13.55518977178723900000	     -0.00000000000006028576	      0.00000000000013107671	     -6.70296060330313460000	     -4.39390052892638930000	     -9.97190657528593330000	    -20.50818726828400400000	    -17.77707898731815900000	     10.17090665218599800000	     95.91580985309281000000	     73.91204186035810200000	      0.00000000000004692121	      0.00000000000001869137	    -13.91491628947493800000	    -35.47542715855660600000	     20.27673225444965500000	    116.46874686178721000000	     73.79626283910806700000	      0.00000000000003151087	      0.00000000000004921988
      1.33700000000000000000	     -2.90082634772307110000	      4.82783738236840240000	      1.93892949345195160000	      0.77385315221593631000	      0.96598729551736640000	     -0.46139784754894464000	     23.54276517250525900000	     -5.78903456025434870000	     -2.23988873510882770000	    -74.00379414065543000000	     -2.48865553262062990000	      0.00000000000007522090	      0.00000000000027706357	      9.46397626303938470000	      5.65785678475221760000	     -2.98638697741962970000	    -33.21541628755704100000	     13.45278371411793100000	     -0.00000000000006025242	      0.00000000000013150957	     -6.77353528391379010000	     -4.33798717253831170000	    -10.04525643205697700000	    -20.58738500600489400000	    -17.85683136728804900000	     10.20739285509418800000	     96.00339410642966700000	     73.83202937985632300000	      0.00000000000004705116	      0.00000000000001878478	    -13.78195512857613500000	    -35.46646500277422100000	     20.25614854376118900000	    116.57432646307612000000	     73.81619131351398300000	      0.00000000000003159699	      0.00000000000004951005
      1.33800000000000010000	     -2.86671311160921280000	      4.78268048401495970000	      1.90450971282498190000	      0.77370859911687950000	      0.96635121948295688000	     -0.46127383042559761000	     23.61538895803867500000	     -5.70560951863331580000	     -2.19219720371702340000	    -73.78559919050637500000	     -2.38904735306885740000	      0.00000000000007531215	      0.00000000000027771334	      9.24072454238505080000	      5.59767632120035060000	     -3.00065795985471610000	    -33.07041712875303600000	     13.34617673450081200000	     -0.00000000000006018963	      0.00000000000013194822	     -6.84346375433071950000	     -4.28049919690683290000	    -10.11769011247133900000	    -20.66660040049772800000	    -17.93751928243204200000	     10.24327554805061300000	     96.09164566459435300000	     73.75524600394942400000	      0.00000000000004717963	      0.00000000000001887737	    -13.65082583300327300000	    -35.45780689313658500000	     20.23510189908770200000	    116.68093880966737000000	     73.83617279625177300000	      0.00000000000003168303	      0.00000000000004982138
      1.33900000000000000000	     -2.83257473293901010000	      4.73649920000982410000	      1.86980584429847880000	      0.77356894256435371000	      0.96672432158299670000	     -0.46114910910413548000	     23.68506989918476100000	     -5.62092453953835940000	     -2.14493962081324920000	    -73.56100274891994700000	     -2.29181005072312830000	      0.00000000000007540524	      0.00000000000027836329	      9.01605428308967660000	      5.53647172315596500000	     -3.01522247370919770000	    -32.92273360908250600000	     13.23536504760932400000	     -0.00000000000006012115	      0.00000000000013238629	     -6.91269040264042100000	     -4.22147373981111420000	    -10.18924808273164100000	    -20.74582914418229200000	    -18.01910344195399500000	     10.27853314737200400000	     96.18047167207794200000	     73.68188373525480000000	      0.00000000000004730729	      0.00000000000001896939	    -13.52153156813878200000	    -35.44942987026932000000	     20.21361682544938500000	    116.78852858102127000000	     73.85621667808935300000	      0.00000000000003176839	      0.00000000000005014301
      1.34000000000000010000	     -2.79846397873884060000	      4.68933036876543330000	      1.83487669692796880000	      0.77343416557584188000	      0.96710636949106110000	     -0.46102381347462518000	     23.75185362322383000000	     -5.53507937260581690000	     -2.09817063234632830000	    -73.33006000904916300000	     -2.19699565160831640000	      0.00000000000007549959	      0.00000000000027901333	      8.79009668820845920000	      5.47430586920083680000	     -3.03001801141869050000	    -32.77249617348229500000	     13.12034556505307800000	     -0.00000000000006004830	      0.00000000000013282691	     -6.98116165909095530000	     -4.16094921153239210000	    -10.25997135358678000000	    -20.82506783376956600000	    -18.10154307604277700000	     10.31314219897199200000	     96.26978281622925200000	     73.61212784875598900000	      0.00000000000004743486	      0.00000000000001906123	    -13.39407380281374100000	    -35.44131076752870500000	     20.19171861221735800000	    116.89704262242512000000	     73.87632837454638900000	      0.00000000000003185265	      0.00000000000005046820
      1.34100000000000000000	     -2.76443247966812460000	      4.64121153463133940000	      1.79978033501523550000	      0.77330424690081345000	      0.96749713008432581000	     -0.46089806904914282000	     23.81578571775441200000	     -5.44817291395327000000	     -2.05194344592290180000	    -73.09282652536870700000	     -2.10465097313312380000	      0.00000000000007559293	      0.00000000000027966212	      8.56298343847074510000	      5.41124103780361660000	     -3.04498291354207270000	    -32.61983848306165600000	     13.00111639418803700000	     -0.00000000000006000824	      0.00000000000013324612	     -7.04882584845508210000	     -4.09896520941713940000	    -10.32990114711990500000	    -20.90431398078019100000	    -18.18479596767711800000	     10.34707738874014100000	     96.35949335590952100000	     73.54615555254159200000	      0.00000000000004756135	      0.00000000000001915443	    -13.26845243783758300000	    -35.43342629920798700000	     20.16943326511756100000	    117.00642999127979000000	     73.89650964085711800000	      0.00000000000003193611	      0.00000000000005079658
